<?xml version="1.0" encoding="iso-8859-1"?>
<!-- Generator: Adobe Illustrator 19.0.0, SVG Export Plug-In . SVG Version: 6.00 Build 0)  -->
<svg version="1.1" id="Layer_1" xmlns="http://www.w3.org/2000/svg" xmlns:xlink="http://www.w3.org/1999/xlink" x="0px" y="0px"
	 viewBox="0 0 512 512" style="enable-background:new 0 0 512 512;" xml:space="preserve">
<g>
	<g>
		<path d="M509.273,308.605c-4.044-7.604-11.956-12.358-20.57-12.358h-62.848c-5.323,0-10.484,1.823-14.626,5.164l-27.408,22.107
			l-42.747-19.087v-77.39c0-4.913-1.553-9.699-4.436-13.677l-52.822-72.847c-4.383-6.043-11.395-9.62-18.861-9.62H232.97
			l-49.969-36.673c-6.063-4.45-13.904-5.698-21.05-3.353l-54.539,17.9L32.183,77.734c-7.761-3.203-16.64-1.98-23.25,3.196
			c-6.609,5.175-9.921,13.506-8.673,21.806l12.928,85.92C3.74,193.767-1.2,204.936,1.931,215.667l32.063,109.866
			c3.436,11.768,15.404,18.86,27.373,16.226c11.972-2.634,19.854-14.096,18.03-26.217L63.511,209.967l99.016,162.376
			c1.724,2.827,4.032,5.256,6.769,7.121l77.05,52.518c3.867,2.636,8.44,4.046,13.121,4.046h166.389
			c7.745,0,14.985-3.849,19.315-10.271l62.848-93.188C512.834,325.428,513.317,316.211,509.273,308.605z M413.468,389.435H266.654
			l-66.96-45.642L80.291,147.986l17.314,7.144c5.139,2.122,10.869,2.331,16.15,0.6l51.336-16.85l46.459,34.098
			c3.998,2.934,8.826,4.515,13.784,4.515h27.733l41.41,57.109v84.943c0,9.193,5.405,17.526,13.798,21.272l69.57,31.063
			c7.996,3.569,17.313,2.359,24.125-3.14l32.108-25.899h10.811L413.468,389.435z"/>
	</g>
</g>
<g>
</g>
<g>
</g>
<g>
</g>
<g>
</g>
<g>
</g>
<g>
</g>
<g>
</g>
<g>
</g>
<g>
</g>
<g>
</g>
<g>
</g>
<g>
</g>
<g>
</g>
<g>
</g>
<g>
</g>
</svg>
